<svg xmlns="http://www.w3.org/2000/svg" xmlns:xlink="http://www.w3.org/1999/xlink" width="21.916" height="17.22" viewBox="0 0 21.916 17.22"><defs><style>.a{opacity:0.3;fill:url(#a);}</style><linearGradient id="a" x1="0.5" x2="1" y2="1" gradientUnits="objectBoundingBox"><stop offset="0" stop-color="#00ffa2"/><stop offset="1" stop-color="#3dff00"/></linearGradient></defs><path class="a" d="M500.565,5557.44a17.813,17.813,0,0,0-4.522-1.44c-.195.36-.422.837-.579,1.221a16.3,16.3,0,0,0-5.011,0,13.261,13.261,0,0,0-.586-1.221,17.508,17.508,0,0,0-4.525,1.448,19.448,19.448,0,0,0-3.249,12.883,17.959,17.959,0,0,0,5.545,2.888,14.326,14.326,0,0,0,1.187-1.988,11.51,11.51,0,0,1-1.87-.924c.157-.117.31-.242.458-.368a12.6,12.6,0,0,0,11.088,0c.149.125.3.25.458.368a11.612,11.612,0,0,1-1.874.924,14.18,14.18,0,0,0,1.188,1.988,17.964,17.964,0,0,0,5.549-2.888A19.456,19.456,0,0,0,500.565,5557.44Zm-11.247,10.3a2.3,2.3,0,0,1,0-4.555,2.3,2.3,0,0,1,0,4.555Zm7.281,0a2.3,2.3,0,0,1,0-4.555,2.3,2.3,0,0,1,0,4.555Z" transform="translate(-482 -5556)"/></svg>